# xmcd CD database file
#
# Track frame offsets:
#	150
#	35792
#	58750
#	89534
#	121896
#	151118
#	170945
#	206419
#	235220
#
# Disc length: 3563 seconds
#
# Revision: 0
# Processed by: cddbd v1.5.1PL0 Copyright (c) Steve Scherf et al.
# Submitted via: CDex 1.51
#
DISCID=7a0de909
DTITLE=Ferry Corsten - Passport: Kingdom of the Netherlands Disc 2
DYEAR=2005
DGENRE=Trance
TTITLE0=Airbiscuit - Lately (Riley and Durrant Mix)
TTITLE1=Ronski Speed - 2Day
TTITLE2=Dogzilla - Without You
TTITLE3=Purple Haze - Adrenaline
TTITLE4=Ferry Corsten - Sublime (Thrillseekers Remix)
TTITLE5=System F - Underwater
TTITLE6=FB feat. Edun - Who's Knockin'? (Ferry Corsten Remix)
TTITLE7=Misja Helsloot - Blue Monkey (Pierre Hiver Remix)
TTITLE8=JPL - A Place Called Home (Passiva Remix)
EXTD=YEAR: 2005
EXTT0=
EXTT1=
EXTT2=
EXTT3=
EXTT4=
EXTT5=
EXTT6=
EXTT7=
EXTT8=
PLAYORDER=
